<svg width="15" height="15" viewBox="0 0 15 15" fill="none" xmlns="http://www.w3.org/2000/svg">
<g clip-path="url(#clip0_383_18282)">
<path d="M7.49978 0.388885C3.57889 0.388885 0.388672 3.57911 0.388672 7.5C0.388672 11.4209 3.57889 14.6111 7.49978 14.6111C11.4207 14.6111 14.6109 11.4209 14.6109 7.5C14.6109 3.57911 11.4207 0.388885 7.49978 0.388885ZM10.9158 5.46266L7.13801 10.3516C7.01712 10.508 6.83312 10.6031 6.63578 10.6102C6.62689 10.6102 6.61889 10.6102 6.61089 10.6102C6.42245 10.6102 6.24201 10.5302 6.11489 10.3898L4.11489 8.16755C3.86867 7.89377 3.89089 7.47244 4.16467 7.22533C4.43934 6.98 4.85889 7.00133 5.10689 7.27511L6.57178 8.90355L9.86156 4.64666C10.0864 4.35511 10.506 4.30177 10.7967 4.52666C11.0882 4.75155 11.1416 5.17022 10.9167 5.46177L10.9158 5.46266Z" fill="#44403C"/>
</g>
<defs>
<clipPath id="clip0_383_18282">
<rect width="15" height="15" fill="white"/>
</clipPath>
</defs>
</svg>
