<svg width="15" height="15" viewBox="0 0 15 15" fill="none" xmlns="http://www.w3.org/2000/svg">
<path d="M3.28125 7.5H2.34375C1.82598 7.5 1.40625 7.91973 1.40625 8.4375V12.1875C1.40625 12.7053 1.82598 13.125 2.34375 13.125H3.28125C3.79902 13.125 4.21875 12.7053 4.21875 12.1875V8.4375C4.21875 7.91973 3.79902 7.5 3.28125 7.5Z" fill="#78716C"/>
<path d="M7.96875 4.6875H7.03125C6.51348 4.6875 6.09375 5.10723 6.09375 5.625V12.1875C6.09375 12.7053 6.51348 13.125 7.03125 13.125H7.96875C8.48652 13.125 8.90625 12.7053 8.90625 12.1875V5.625C8.90625 5.10723 8.48652 4.6875 7.96875 4.6875Z" fill="#78716C"/>
<path d="M12.6562 1.875H11.7188C11.201 1.875 10.7812 2.29473 10.7812 2.8125V12.1875C10.7812 12.7053 11.201 13.125 11.7188 13.125H12.6562C13.174 13.125 13.5938 12.7053 13.5938 12.1875V2.8125C13.5938 2.29473 13.174 1.875 12.6562 1.875Z" fill="#E7E5E4"/>
</svg>
